REM DIRINDEX 1\4,1\2\5,1\2\6,1\3\7,1\3\8
REM DIRNAME folder01,folder02,folder03,folder04,folder05,folder06,folder07,folder08
TITLE ""
FILE "011_Day06_Check2_Phrases.mp3" MP3
  TRACK 01 AUDIO
    TITLE "0:"
    INDEX 01 00:00:00
  TRACK 02 AUDIO
    TITLE "4:cjc124_0331"
    INDEX 01 00:00:31
  TRACK 03 AUDIO
    TITLE "0:"
    INDEX 01 00:01:46
  TRACK 04 AUDIO
    TITLE "5:cjc124_0332"
    INDEX 01 00:02:00
  TRACK 05 AUDIO
    TITLE "0:"
    INDEX 01 00:03:57
  TRACK 06 AUDIO
    TITLE "6:cjc124_0333"
    INDEX 01 00:03:74
  TRACK 07 AUDIO
    TITLE "0:"
    INDEX 01 00:06:00
  TRACK 08 AUDIO
    TITLE "5:cjc124_0334"
    INDEX 01 00:06:47
  TRACK 09 AUDIO
    TITLE "0:"
    INDEX 01 00:08:19
  TRACK 10 AUDIO
    TITLE "6:cjc124_0335"
    INDEX 01 00:08:36
  TRACK 11 AUDIO
    TITLE "0:"
    INDEX 01 00:09:67
  TRACK 12 AUDIO
    TITLE "5:cjc124_0336"
    INDEX 01 00:10:37
  TRACK 13 AUDIO
    TITLE "0:"
    INDEX 01 00:12:34
  TRACK 14 AUDIO
    TITLE "6:cjc124_0337"
    INDEX 01 00:12:50
  TRACK 15 AUDIO
    TITLE "0:"
    INDEX 01 00:13:61
  TRACK 16 AUDIO
    TITLE "5:cjc124_0338"
    INDEX 01 00:14:29
  TRACK 17 AUDIO
    TITLE "0:"
    INDEX 01 00:16:02
  TRACK 18 AUDIO
    TITLE "6:cjc124_0339"
    INDEX 01 00:16:22
  TRACK 19 AUDIO
    TITLE "0:"
    INDEX 01 00:17:43
  TRACK 20 AUDIO
    TITLE "5:cjc124_0340"
    INDEX 01 00:18:11
  TRACK 21 AUDIO
    TITLE "0:"
    INDEX 01 00:19:73
  TRACK 22 AUDIO
    TITLE "6:cjc124_0341"
    INDEX 01 00:20:14
  TRACK 23 AUDIO
    TITLE "0:"
    INDEX 01 00:21:68
  TRACK 24 AUDIO
    TITLE "5:cjc124_0342"
    INDEX 01 00:22:36
  TRACK 25 AUDIO
    TITLE "0:"
    INDEX 01 00:24:43
  TRACK 26 AUDIO
    TITLE "6:cjc124_0343"
    INDEX 01 00:24:61
  TRACK 27 AUDIO
    TITLE "0:"
    INDEX 01 00:26:64
  TRACK 28 AUDIO
    TITLE "5:cjc124_0344"
    INDEX 01 00:27:36
  TRACK 29 AUDIO
    TITLE "0:"
    INDEX 01 00:29:13
  TRACK 30 AUDIO
    TITLE "6:cjc124_0345"
    INDEX 01 00:29:44
  TRACK 31 AUDIO
    TITLE "0:"
    INDEX 01 00:31:16
  TRACK 32 AUDIO
    TITLE "5:cjc124_0346"
    INDEX 01 00:31:55
  TRACK 33 AUDIO
    TITLE "0:"
    INDEX 01 00:33:15
  TRACK 34 AUDIO
    TITLE "6:cjc124_0347"
    INDEX 01 00:33:52
  TRACK 35 AUDIO
    TITLE "0:"
    INDEX 01 00:34:69
  TRACK 36 AUDIO
    TITLE "5:cjc124_0348"
    INDEX 01 00:35:37
  TRACK 37 AUDIO
    TITLE "0:"
    INDEX 01 00:36:60
  TRACK 38 AUDIO
    TITLE "6:cjc124_0349"
    INDEX 01 00:37:20
  TRACK 39 AUDIO
    TITLE "0:"
    INDEX 01 00:38:63
  TRACK 40 AUDIO
    TITLE "5:cjc124_0350"
    INDEX 01 00:39:31
  TRACK 41 AUDIO
    TITLE "0:"
    INDEX 01 00:41:16
  TRACK 42 AUDIO
    TITLE "6:cjc124_0351"
    INDEX 01 00:41:38
  TRACK 43 AUDIO
    TITLE "0:"
    INDEX 01 00:42:72
  TRACK 44 AUDIO
    TITLE "5:cjc124_0352"
    INDEX 01 00:43:39
  TRACK 45 AUDIO
    TITLE "0:"
    INDEX 01 00:45:16
  TRACK 46 AUDIO
    TITLE "6:cjc124_0353"
    INDEX 01 00:45:47
  TRACK 47 AUDIO
    TITLE "0:"
    INDEX 01 00:47:09
  TRACK 48 AUDIO
    TITLE "5:cjc124_0354"
    INDEX 01 00:47:54
  TRACK 49 AUDIO
    TITLE "0:"
    INDEX 01 00:49:31
  TRACK 50 AUDIO
    TITLE "6:cjc124_0355"
    INDEX 01 00:49:49
  TRACK 51 AUDIO
    TITLE "0:"
    INDEX 01 00:51:16
  TRACK 52 AUDIO
    TITLE "5:cjc124_0356"
    INDEX 01 00:51:60
  TRACK 53 AUDIO
    TITLE "0:"
    INDEX 01 00:54:29
  TRACK 54 AUDIO
    TITLE "6:cjc124_0357"
    INDEX 01 00:54:56
  TRACK 55 AUDIO
    TITLE "0:"
    INDEX 01 00:56:10
  TRACK 56 AUDIO
    TITLE "5:cjc124_0358"
    INDEX 01 00:56:51
  TRACK 57 AUDIO
    TITLE "0:"
    INDEX 01 00:58:22
  TRACK 58 AUDIO
    TITLE "6:cjc124_0359"
    INDEX 01 00:58:40
  TRACK 59 AUDIO
    TITLE "0:"
    INDEX 01 00:59:69
  TRACK 60 AUDIO
    TITLE "5:cjc124_0360"
    INDEX 01 01:00:31
  TRACK 61 AUDIO
    TITLE "0:"
    INDEX 01 01:02:34
  TRACK 62 AUDIO
    TITLE "6:cjc124_0361"
    INDEX 01 01:02:52
  TRACK 63 AUDIO
    TITLE "0:"
    INDEX 01 01:05:03
  TRACK 64 AUDIO
    TITLE "5:cjc124_0362"
    INDEX 01 01:05:48
  TRACK 65 AUDIO
    TITLE "0:"
    INDEX 01 01:07:31
  TRACK 66 AUDIO
    TITLE "6:cjc124_0363"
    INDEX 01 01:07:51
  TRACK 67 AUDIO
    TITLE "0:"
    INDEX 01 01:09:52
